<svg style="display: none;" aria-hidden="true" xmlns="http://www.w3.org/2000/svg" xmlns:xlink="http://www.w3.org/1999/xlink"><symbol viewBox="0 0 10 6" fill="none" id="svg-arrow-down"><path d="M1 1L5.26667 4L9 1" stroke="#000" stroke-width="2"/></symbol><symbol viewBox="0 0 14 14" fill="none" id="svg-close"><path d="M14 1.99394L8.99394 7L14 12.0061L12.0061 14L7 9.00808L2.00808 14L0 11.9919L4.99192 7L0 2.00808L2.00808 0L7 4.99192L12.0061 0L14 1.99394Z" fill="#000"/></symbol><symbol viewBox="0 0 16 16" fill="none" id="svg-group"><path d="M16 8C16 10.1217 15.1571 12.1566 13.6569 13.6569C12.1566 15.1571 10.1217 16 8 16C5.87827 16 3.84344 15.1571 2.34315 13.6569C0.842855 12.1566 0 10.1217 0 8C0 5.87827 0.842855 3.84344 2.34315 2.34315C3.84344 0.842855 5.87827 0 8 0C10.1217 0 12.1566 0.842855 13.6569 2.34315C15.1571 3.84344 16 5.87827 16 8ZM5.496 6.033H6.321C6.459 6.033 6.569 5.92 6.587 5.783C6.677 5.127 7.127 4.649 7.929 4.649C8.615 4.649 9.243 4.992 9.243 5.817C9.243 6.452 8.869 6.744 8.278 7.188C7.605 7.677 7.072 8.248 7.11 9.175L7.113 9.392C7.11405 9.45761 7.14085 9.52017 7.18762 9.5662C7.23439 9.61222 7.29738 9.63801 7.363 9.638H8.174C8.2403 9.638 8.30389 9.61166 8.35078 9.56478C8.39766 9.51789 8.424 9.4543 8.424 9.388V9.283C8.424 8.565 8.697 8.356 9.434 7.797C10.043 7.334 10.678 6.82 10.678 5.741C10.678 4.23 9.402 3.5 8.005 3.5C6.738 3.5 5.35 4.09 5.255 5.786C5.25363 5.81829 5.25888 5.85053 5.27043 5.88072C5.28198 5.91091 5.29958 5.93841 5.32216 5.96155C5.34473 5.98468 5.3718 6.00296 5.40169 6.01524C5.43159 6.02753 5.46368 6.03357 5.496 6.033ZM7.821 12.476C8.431 12.476 8.85 12.082 8.85 11.549C8.85 10.997 8.43 10.609 7.821 10.609C7.237 10.609 6.812 10.997 6.812 11.549C6.812 12.082 7.237 12.476 7.822 12.476H7.821Z" fill="#000" opacity=".4"/></symbol><symbol viewBox="0 0 15 12" fill="none" id="svg-minus"><path d="M12.6562 6.5625H2.34375C2.15727 6.5625 1.97843 6.50324 1.84657 6.39775C1.7147 6.29226 1.64062 6.14918 1.64062 6C1.64062 5.85082 1.7147 5.70774 1.84657 5.60225C1.97843 5.49676 2.15727 5.4375 2.34375 5.4375H12.6562C12.8427 5.4375 13.0216 5.49676 13.1534 5.60225C13.2853 5.70774 13.3594 5.85082 13.3594 6C13.3594 6.14918 13.2853 6.29226 13.1534 6.39775C13.0216 6.50324 12.8427 6.5625 12.6562 6.5625Z" fill="#000"/></symbol><symbol viewBox="0 0 15 15" fill="none" id="svg-plus"><path fill-rule="evenodd" clip-rule="evenodd" d="M7.5 2C7.62156 2 7.73814 2.04829 7.82409 2.13424C7.91005 2.2202 7.95833 2.33678 7.95833 2.45833V7.04167H12.5417C12.6632 7.04167 12.7798 7.08996 12.8658 7.17591C12.9517 7.26186 13 7.37844 13 7.5C13 7.62156 12.9517 7.73814 12.8658 7.82409C12.7798 7.91005 12.6632 7.95833 12.5417 7.95833H7.95833V12.5417C7.95833 12.6632 7.91005 12.7798 7.82409 12.8658C7.73814 12.9517 7.62156 13 7.5 13C7.37844 13 7.26186 12.9517 7.17591 12.8658C7.08996 12.7798 7.04167 12.6632 7.04167 12.5417V7.95833H2.45833C2.33678 7.95833 2.2202 7.91005 2.13424 7.82409C2.04829 7.73814 2 7.62156 2 7.5C2 7.37844 2.04829 7.26186 2.13424 7.17591C2.2202 7.08996 2.33678 7.04167 2.45833 7.04167H7.04167V2.45833C7.04167 2.33678 7.08996 2.2202 7.17591 2.13424C7.26186 2.04829 7.37844 2 7.5 2Z" fill="#000"/></symbol><symbol viewBox="0 0 13 13" fill="none" id="svg-search"><path fill-rule="evenodd" clip-rule="evenodd" d="M5.68668 2.08398C4.7308 2.08398 3.81406 2.46371 3.13815 3.13962C2.46224 3.81553 2.08252 4.73227 2.08252 5.68815C2.08252 6.64404 2.46224 7.56077 3.13815 8.23668C3.81406 8.9126 4.7308 9.29232 5.68668 9.29232C6.64257 9.29232 7.5593 8.9126 8.23521 8.23668C8.91112 7.56077 9.29085 6.64404 9.29085 5.68815C9.29085 4.73227 8.91112 3.81553 8.23521 3.13962C7.5593 2.46371 6.64256 2.08398 5.68668 2.08398ZM1.72394 1.72541C2.77492 0.674422 4.20036 0.0839844 5.68668 0.0839844C7.173 0.0839844 8.59844 0.674422 9.64942 1.72541C10.7004 2.77639 11.2908 4.20183 11.2908 5.68815C11.2908 6.83599 10.9387 7.94753 10.2943 8.87833L12.0819 10.6692L10.6664 12.0821L8.88062 10.2931C7.94905 10.9392 6.83607 11.2923 5.68668 11.2923C4.20036 11.2923 2.77492 10.7019 1.72394 9.6509C0.672953 8.59991 0.0825157 7.17447 0.0825157 5.68815C0.0825157 4.20183 0.672953 2.77639 1.72394 1.72541Z" fill="#000"/></symbol></svg>